#!OML:ASF F:\VICON\USERDATA\INSTALL\rory3\rory3.ASF
:FULLY-SPECIFIED
:DEGREES
61
root 1.09956 17.8019 -16.9002 5.99638 0.781297 0.0765046
lowerback 5.79042 -0.597938 -1.39957
upperback 0.407859 -0.826094 2.07124
thorax -2.77621 -0.38322 2.99057
lowerneck -20.4033 -4.32168 -8.85132
upperneck 14.9051 -4.43647 5.80137
head 8.30743 -2.01646 2.81563
rclavicle 6.95746e-015 -7.55382e-015
rhumerus -31.1073 -8.31284 -80.567
rradius 33.854
rwrist 5.0645
rhand -11.4805 13.8865
rfingers 7.12502
rthumb 14.5575 -15.5827
lclavicle 6.95746e-015 -7.55382e-015
lhumerus -28.2249 6.34691 86.4012
lradius 28.0343
lwrist -6.06219
lhand -17.9568 24.9398
lfingers 7.12502
lthumb 8.312 54.7563
rfemur -10.1735 4.83953 20.7912
rtibia 21.1257
rfoot -10.7248 -11.7549
rtoes 1.69273
lfemur -10.8768 -3.69615 -20.3081
ltibia 21.1425
lfoot -12.6244 3.79936
ltoes 1.21626
62
root 1.10126 17.8005 -16.8938 5.98602 0.734796 0.0836417
lowerback 5.83871 -0.592767 -1.41697
upperback 0.422275 -0.819998 2.09448
thorax -2.7882 -0.379837 3.02467
lowerneck -20.3424 -4.30298 -8.87936
upperneck 14.7828 -4.40639 5.81413
head 8.25436 -2.00277 2.82839
rclavicle 9.24349e-015 -6.36111e-015
rhumerus -31.0497 -8.27934 -80.5412
rradius 33.8245
rwrist 5.05198
rhand -11.5503 13.9917
rfingers 7.12502
rthumb 14.4903 -15.4823
lclavicle 9.24349e-015 -6.36111e-015
lhumerus -28.2164 6.42185 86.4039
lradius 28.1404
lwrist -6.432
lhand -17.1794 25.9143
lfingers 7.12502
lthumb 9.06219 55.6996
rfemur -10.2176 4.86582 20.7764
rtibia 21.2569
rfoot -10.7434 -11.7426
rtoes 1.4369
lfemur -10.8103 -3.76241 -20.3194
ltibia 21.1197
lfoot -12.6377 3.8757
ltoes 1.42241
63
root 1.10319 17.7965 -16.887 5.97277 0.633996 0.0130935
lowerback 5.84855 -0.584523 -1.33403
upperback 0.427975 -0.803165 2.11186
thorax -2.78977 -0.3724 2.99461
lowerneck -20.2819 -4.31047 -8.82319
upperneck 14.7097 -4.42028 5.73458
head 8.21716 -2.01474 2.79031
rclavicle -7.45443e-015 -8.34896e-015
rhumerus -31.0881 -8.22258 -80.5519
rradius 33.8276
rwrist 5.03826
rhand -11.606 14.0479
rfingers 7.12502
rthumb 14.4367 -15.43
lclavicle -7.45443e-015 -8.34896e-015
lhumerus -28.1819 6.64141 86.3104
lradius 28.0493
lwrist -6.93257
lhand -16.537 26.5045
lfingers 7.12502
lthumb 9.68205 56.262
rfemur -10.2505 4.90688 20.8466
rtibia 21.332
rfoot -10.6873 -11.6798
rtoes 1.35889
lfemur -10.7777 -3.75826 -20.2554
ltibia 21.1037
lfoot -12.6418 3.98211
ltoes 1.1529
64
root 1.10482 17.7945 -16.8774 5.90052 0.602659 0.0979049
lowerback 5.83748 -0.586925 -1.33889
upperback 0.49476 -0.809551 2.0338
thorax -2.71527 -0.37752 2.91594
lowerneck -20.3705 -4.32336 -8.74461
upperneck 14.7554 -4.4511 5.71786
head 8.2477 -2.02532 2.76719
rclavicle -1.35174e-014 1.07344e-014
rhumerus -31.0954 -8.31809 -80.6253
rradius 33.818
rwrist 5.05578
rhand -11.6964 14.116
rfingers 7.12502
rthumb 14.3496 -15.3681
lclavicle -1.35174e-014 1.07344e-014
lhumerus -28.1199 6.55292 86.277
lradius 27.8122
lwrist -6.47517
lhand -17.4253 25.3893
lfingers 7.12502
lthumb 8.82492 55.1848
rfemur -10.1349 4.8774 20.7545
rtibia 21.3656
rfoot -10.7109 -11.6077
rtoes 1.33828
lfemur -10.68 -3.64729 -20.3783
ltibia 21.1052
lfoot -12.6466 3.94923
ltoes 0.721459
65
root 1.10727 17.7951 -16.8683 5.87008 0.657683 0.152721
lowerback 5.90012 -0.613998 -1.37171
upperback 0.432291 -0.847591 2.02886
thorax -2.81214 -0.394265 2.93425
lowerneck -20.2516 -4.3215 -8.75021
upperneck 14.8346 -4.45871 5.70762
head 8.2547 -2.03273 2.7651
rclavicle -5.86415e-015 -1.70955e-014
rhumerus -31.2627 -8.25584 -80.6002
rradius 33.8041
rwrist 4.87465
rhand -11.7604 14.1654
rfingers 7.12502
rthumb 14.2879 -15.323
lclavicle -5.86415e-015 -1.70955e-014
lhumerus -28.331 6.55308 86.2676
lradius 27.8053
lwrist -6.55454
lhand -17.3848 25.0883
lfingers 7.12502
lthumb 8.86403 54.8821
rfemur -10.0972 4.72099 20.7104
rtibia 21.4396
rfoot -10.7913 -11.6838
rtoes 0.292006
lfemur -10.5844 -3.62473 -20.4455
ltibia 21.0959
lfoot -12.7277 3.87202
ltoes 0.826444
66
root 1.10636 17.7958 -16.8652 5.897 0.652763 0.0994307
lowerback 5.98467 -0.635198 -1.40891
upperback 0.363084 -0.875235 2.12203
thorax -2.92736 -0.404858 3.05657
lowerneck -20.1766 -4.31247 -8.83839
upperneck 14.8316 -4.42123 5.67672
head 8.23941 -2.02456 2.77452
rclavicle 2.11706e-014 -3.02153e-014
rhumerus -31.2951 -8.15321 -80.5127
rradius 33.7918
rwrist 4.93057
rhand -11.7447 13.9687
rfingers 7.12502
rthumb 14.303 -15.5187
lclavicle 2.11706e-014 -3.02153e-014
lhumerus -28.505 6.88044 86.2094
lradius 28.0015
lwrist -7.54401
lhand -16.051 25.1611
lfingers 7.12502
lthumb 10.1509 54.8962
rfemur -10.2018 4.80105 20.7815
rtibia 21.5762
rfoot -10.874 -11.8901
rtoes -0.428833
lfemur -10.5604 -3.57365 -20.3763
ltibia 21.063
lfoot -12.7854 3.8293
ltoes 0.809226
